Coordinates
version=1
nRows=34
nColumns=38
inDegrees=no

Units are S.I. units (second, meters, Newtons, ...)
If the header above contains a line with 'inDegrees', this indicates whether rotational values are in degrees (yes) or radians (no).

endheader
time	pelvis_tilt	pelvis_list	pelvis_rotation	pelvis_tx	pelvis_ty	pelvis_tz	hip_flexion_r	hip_adduction_r	hip_rotation_r	knee_angle_r	ankle_angle_r	subtalar_angle_r	mtp_angle_r	hip_flexion_l	hip_adduction_l	hip_rotation_l	knee_angle_l	ankle_angle_l	subtalar_angle_l	mtp_angle_l	lumbar_extension	lumbar_bending	lumbar_rotation	arm_flex_r	arm_add_r	arm_rot_r	elbow_flex_r	pro_sup_r	wrist_flex_r	wrist_dev_r	arm_flex_l	arm_add_l	arm_rot_l	elbow_flex_l	pro_sup_l	wrist_flex_l	wrist_dev_l
0.61	-0.00118009	1.35593	1.5581	0.976008	0.0449098	1.0305	0.426349	-0.115838	-0.0278159	1.2247	-0.267647	0	0	0.352969	-0.000460359	-0.329645	0.303837	-0.115542	0	0	0.11972	-0.0610264	0.0821336	-0.147319	-0.286424	0.234555	0.530553	1.42444	0	0	-0.181015	-0.127128	-0.522086	0.449052	1.17818	0	0
0.62	0.024008	1.35612	1.53706	0.974298	0.0560819	1.03214	0.444708	-0.110519	-0.0316829	1.2216	-0.244763	0	0	0.337489	-0.00199766	-0.326324	0.296465	-0.113483	0	0	0.121587	-0.0557727	0.0781249	-0.152546	-0.28551	0.239401	0.52388	1.42761	0	0	-0.182497	-0.12791	-0.522017	0.446836	1.17441	0	0
0.63	0.0494348	1.35537	1.51597	0.972692	0.067158	1.03366	0.463373	-0.104598	-0.0353588	1.21472	-0.223959	0	0	0.322774	-0.00368762	-0.322847	0.288812	-0.112244	0	0	0.12389	-0.0506254	0.0737949	-0.158262	-0.284318	0.241877	0.518599	1.4277	0	0	-0.184573	-0.128984	-0.52136	0.445564	1.17012	0	0
0.64	0.0738871	1.35441	1.49565	0.971162	0.0782403	1.03509	0.48099	-0.0981634	-0.0382974	1.20333	-0.204691	0	0	0.307267	-0.00526963	-0.320239	0.27927	-0.112067	0	0	0.126316	-0.0457322	0.0696606	-0.164266	-0.282896	0.242843	0.513941	1.42537	0	0	-0.187019	-0.130367	-0.520023	0.444573	1.16575	0	0
0.65	0.097944	1.35359	1.47477	0.969757	0.0892643	1.03644	0.497608	-0.0915077	-0.0415483	1.18763	-0.195636	0	0	0.291029	-0.00742814	-0.320232	0.268819	-0.112149	0	0	0.127397	-0.0408811	0.0682438	-0.172141	-0.279457	0.232021	0.510873	1.43295	0	0	-0.187263	-0.130504	-0.525555	0.443479	1.17003	0	0
0.66	0.122787	1.35207	1.45373	0.968397	0.100185	1.03764	0.51387	-0.0851058	-0.0471217	1.16838	-0.176288	0	0	0.275473	-0.00979595	-0.317588	0.257624	-0.112447	0	0	0.129632	-0.0359636	0.0646902	-0.177481	-0.276852	0.228847	0.505564	1.43375	0	0	-0.188738	-0.130811	-0.530997	0.442905	1.17168	0	0
0.67	0.148074	1.34985	1.43289	0.967104	0.111081	1.03866	0.529556	-0.0787825	-0.0543551	1.14529	-0.155179	0	0	0.261008	-0.0127179	-0.31385	0.24694	-0.112742	0	0	0.134899	-0.0310148	0.0538569	-0.171761	-0.288565	0.299423	0.49702	1.35097	0	0	-0.203376	-0.143924	-0.467359	0.447924	1.09818	0	0
0.68	0.175956	1.34885	1.4098	0.965813	0.121888	1.03964	0.542625	-0.072554	-0.0635715	1.11834	-0.140441	0	0	0.245568	-0.0166531	-0.311141	0.236864	-0.113386	0	0	0.133356	-0.0254538	0.0540399	-0.183096	-0.27492	0.241574	0.492532	1.41303	0	0	-0.195231	-0.135354	-0.52041	0.444428	1.15066	0	0
0.69	0.202399	1.347	1.38841	0.964553	0.132645	1.04041	0.555057	-0.0666611	-0.0737609	1.08704	-0.129186	0	0	0.231263	-0.0207264	-0.309329	0.227496	-0.113794	0	0	0.134188	-0.0200875	0.0499629	-0.187248	-0.271896	0.23618	0.487113	1.41365	0	0	-0.19542	-0.135644	-0.525803	0.444408	1.15212	0	0
0.7	0.226816	1.34569	1.36972	0.96326	0.143389	1.04107	0.565314	-0.0621111	-0.085844	1.05146	-0.117758	0	0	0.216016	-0.0239543	-0.306818	0.217702	-0.113887	0	0	0.133966	-0.0153146	0.0451868	-0.190414	-0.268899	0.231752	0.481168	1.41305	0	0	-0.195354	-0.13624	-0.530297	0.444698	1.15225	0	0
0.71	0.247778	1.34488	1.35479	0.961954	0.154091	1.04159	0.573576	-0.0587597	-0.0984626	1.01141	-0.108031	0	0	0.199437	-0.02588	-0.304412	0.206945	-0.114126	0	0	0.132805	-0.0113835	0.0401514	-0.192908	-0.266005	0.227882	0.475299	1.41122	0	0	-0.194906	-0.137152	-0.533874	0.445154	1.15141	0	0
0.72	0.265731	1.34395	1.34294	0.96067	0.164731	1.04189	0.580513	-0.0557456	-0.11021	0.966727	-0.100809	0	0	0.181989	-0.0268237	-0.30158	0.194233	-0.115031	0	0	0.131523	-0.00797035	0.0352549	-0.195248	-0.263291	0.223966	0.470006	1.40786	0	0	-0.194183	-0.138217	-0.536852	0.445979	1.14992	0	0
0.73	0.281129	1.34252	1.33433	0.959391	0.175298	1.04192	0.586415	-0.0526683	-0.121423	0.917832	-0.0963904	0	0	0.166564	-0.0276784	-0.298408	0.182681	-0.11626	0	0	0.130368	-0.00508886	0.0298691	-0.196995	-0.260657	0.2215	0.464531	1.40439	0	0	-0.193418	-0.13961	-0.538856	0.447493	1.14781	0	0
0.74	0.293056	1.34073	1.32952	0.958173	0.185856	1.04177	0.590964	-0.0493826	-0.131186	0.864566	-0.09549	0	0	0.151678	-0.0279698	-0.293312	0.170754	-0.119213	0	0	0.131891	-0.00337371	0.017535	-0.187502	-0.273022	0.303155	0.455775	1.30868	0	0	-0.207269	-0.157061	-0.457537	0.455481	1.05696	0	0
0.75	0.304332	1.33985	1.32442	0.957017	0.196385	1.04149	0.59271	-0.0449591	-0.138344	0.806101	-0.097647	0	0	0.135861	-0.0281	-0.287813	0.159109	-0.121885	0	0	0.128466	-0.00141616	0.0157431	-0.191882	-0.262767	0.264424	0.448913	1.35156	0	0	-0.199119	-0.152644	-0.492812	0.453407	1.09102	0	0
0.76	0.31127	1.33824	1.32278	0.956016	0.207009	1.04097	0.593463	-0.0397272	-0.142537	0.742318	-0.102012	0	0	0.121078	-0.0278037	-0.283195	0.147917	-0.123349	0	0	0.127903	-0.000202815	0.0114223	-0.191246	-0.260821	0.270557	0.441436	1.3431	0	0	-0.198341	-0.156109	-0.488274	0.454066	1.08328	0	0
0.77	0.315088	1.3352	1.3237	0.955087	0.217673	1.04013	0.594048	-0.0336707	-0.144126	0.674422	-0.104511	0	0	0.108935	-0.028221	-0.283193	0.139099	-0.12345	0	0	0.12913	0.000982085	0.00809157	-0.191878	-0.25848	0.27188	0.435203	1.33852	0	0	-0.197301	-0.159612	-0.483857	0.454272	1.07715	0	0
0.78	0.319099	1.33232	1.32411	0.954153	0.228332	1.03911	0.592153	-0.0265141	-0.143127	0.600685	-0.112957	0	0	0.0972917	-0.0292494	-0.286242	0.131762	-0.122889	0	0	0.12974	0.00238406	0.00557539	-0.192298	-0.255101	0.267808	0.428177	1.34377	0	0	-0.194298	-0.161085	-0.489157	0.453725	1.08113	0	0
0.79	0.320609	1.329	1.32659	0.953269	0.239066	1.03786	0.588451	-0.0189126	-0.138697	0.52157	-0.123908	0	0	0.0863	-0.0296936	-0.288194	0.124479	-0.121516	0	0	0.131209	0.00351286	0.00315047	-0.192526	-0.252253	0.265361	0.421446	1.34726	0	0	-0.191714	-0.162665	-0.493805	0.453393	1.08372	0	0
0.8	0.318316	1.32564	1.33193	0.9525	0.24996	1.03641	0.582878	-0.0112272	-0.129815	0.438429	-0.137352	0	0	0.0758135	-0.0294012	-0.290594	0.118816	-0.119961	0	0	0.133439	0.00391821	0.00141982	-0.192769	-0.249671	0.263698	0.415026	1.34896	0	0	-0.18959	-0.16456	-0.497542	0.452982	1.08537	0	0
0.81	0.31336	1.32252	1.33991	0.95169	0.261039	1.03479	0.575007	-0.00403685	-0.11739	0.351973	-0.154345	0	0	0.0658955	-0.0286188	-0.293559	0.115133	-0.117722	0	0	0.135918	0.00372666	-0.000465504	-0.193269	-0.247542	0.262688	0.409391	1.34989	0	0	-0.188043	-0.166511	-0.500603	0.45292	1.08702	0	0
0.82	0.304655	1.31929	1.35373	0.950833	0.27217	1.03294	0.566101	0.000853311	-0.103496	0.265248	-0.174351	0	0	0.0574854	-0.027058	-0.293004	0.113513	-0.114404	0	0	0.14054	0.001834	-0.00987227	-0.186033	-0.256995	0.33368	0.403263	1.2716	0	0	-0.199075	-0.181634	-0.437823	0.459929	1.01818	0	0
0.83	0.2963	1.31653	1.3675	0.949839	0.283471	1.03085	0.557157	0.00437385	-0.0903692	0.183889	-0.192518	0	0	0.0491057	-0.0257421	-0.292476	0.11378	-0.109143	0	0	0.140908	0.000758768	-0.0103384	-0.194315	-0.246478	0.272499	0.403078	1.3364	0	0	-0.193164	-0.179251	-0.462293	0.460373	1.04405	0	0
0.84	0.285967	1.31294	1.38359	0.948729	0.294995	1.02856	0.551107	0.00617597	-0.0808021	0.112981	-0.2047	0	0	0.0423877	-0.0242528	-0.291057	0.115956	-0.104108	0	0	0.145123	-0.000925492	-0.0155515	-0.196989	-0.246627	0.273478	0.402581	1.33139	0	0	-0.195344	-0.18275	-0.456425	0.46404	1.03522	0	0
0.85	0.275897	1.30893	1.3994	0.94756	0.306711	1.02625	0.547376	0.00730115	-0.0753855	0.0529952	-0.209441	0	0	0.03724	-0.023217	-0.289884	0.121058	-0.100703	0	0	0.150878	-0.00245216	-0.0220949	-0.198045	-0.249838	0.290974	0.401632	1.30669	0	0	-0.196812	-0.182348	-0.468236	0.466156	1.04028	0	0
0.86	0.267687	1.30451	1.41267	0.946455	0.318577	1.02389	0.545044	0.0084682	-0.0696363	0.000549901	-0.22018	0	0	0.0333371	-0.0233908	-0.290018	0.12898	-0.0955005	0	0	0.156151	-0.0027881	-0.0260562	-0.202302	-0.24916	0.280233	0.402009	1.31189	0	0	-0.196191	-0.181617	-0.477009	0.466389	1.03742	0	0
0.87	0.262462	1.30025	1.42199	0.945468	0.330586	1.02164	0.550933	0.010432	-0.0827676	0	-0.221342	0	0	0.0297106	-0.0249289	-0.291348	0.139098	-0.0899303	0	0	0.161582	-0.002217	-0.0285929	-0.206082	-0.248464	0.271037	0.400996	1.31677	0	0	-0.194646	-0.180135	-0.486265	0.465073	1.02795	0	0
0.88	0.260753	1.29805	1.42859	0.944661	0.342657	1.01966	0.554643	0.0129423	-0.0963153	0	-0.21487	0	0	0.025653	-0.0279385	-0.291606	0.152321	-0.0837568	0	0	0.164195	-0.00146712	-0.0319208	-0.208615	-0.247057	0.261175	0.39916	1.32114	0	0	-0.192948	-0.179893	-0.492311	0.46379	1.01509	0	0
0.89	0.260619	1.2996	1.43613	0.94391	0.354575	1.01814	0.55403	0.0143247	-0.107422	0	-0.203826	0	0	0.0195363	-0.0312448	-0.287362	0.167541	-0.0778981	0	0	0.162522	-0.00179642	-0.0426436	-0.200883	-0.258201	0.331302	0.396629	1.23358	0	0	-0.205172	-0.19948	-0.404899	0.471638	0.914434	0	0
0.9	0.263919	1.30611	1.43936	0.942969	0.366563	1.01712	0.548027	0.0159339	-0.113619	0	-0.195616	0	0	0.0083593	-0.0348961	-0.285644	0.183983	-0.0742888	0	0	0.149011	1.92755e-05	-0.0397452	-0.210596	-0.242949	0.229122	0.400251	1.32926	0	0	-0.185303	-0.183849	-0.488746	0.463479	1.00713	0	0
0.91	0.263176	1.30926	1.4421	0.942171	0.379104	1.01591	0.545682	0.0188313	-0.109079	0	-0.195792	0	0	5.83107e-05	-0.0381853	-0.290378	0.201379	-0.0729994	0	0	0.144683	0.00179343	-0.0401726	-0.211731	-0.24443	0.226511	0.400663	1.32088	0	0	-0.184316	-0.184901	-0.488412	0.462308	1.01554	0	0
0.92	0.264638	1.31208	1.44001	0.941425	0.392067	1.01476	0.543317	0.0235974	-0.0982729	0	-0.203557	0	0	-0.00831517	-0.0425454	-0.299964	0.219754	-0.0735038	0	0	0.141642	0.00497254	-0.0381735	-0.213749	-0.247357	0.227122	0.401502	1.31153	0	0	-0.184568	-0.185791	-0.487163	0.459909	1.02323	0	0
0.93	0.272593	1.3173	1.4318	0.940514	0.405278	1.01396	0.537718	0.0295586	-0.0876099	0	-0.211454	0	0	-0.0181343	-0.0487952	-0.311988	0.240859	-0.0770932	0	0	0.135393	0.00984188	-0.0369091	-0.215514	-0.251708	0.230605	0.40355	1.30136	0	0	-0.184768	-0.186236	-0.485037	0.45671	1.02491	0	0
0.94	0.279725	1.32147	1.42459	0.939475	0.418898	1.01319	0.536837	0.0350238	-0.0862047	0.030357	-0.210625	0	0	-0.0268948	-0.0542251	-0.317385	0.260727	-0.0809726	0	0	0.132402	0.0141994	-0.0366142	-0.217301	-0.255684	0.234389	0.403257	1.297	0	0	-0.187112	-0.185916	-0.485147	0.45338	1.02077	0	0
